<svg width="1440" height="532" viewBox="0 0 1440 532" fill="none" xmlns="http://www.w3.org/2000/svg">
<path d="M0 532L26.7 510.7C53.3 489 107 447 160 441.3C213.3 436 267 468 320 473.3C373.3 479 427 457 480 430.7C533.3 404 587 372 640 350.7C693.3 329 747 319 800 313.3C853.3 308 907 308 960 308C1013.3 308 1067 308 1120 297.3C1173.3 287 1227 265 1280 286.7C1333.3 308 1387 372 1413 404L1440 436V532H1413.3C1386.7 532 1333 532 1280 532C1226.7 532 1173 532 1120 532C1066.7 532 1013 532 960 532C906.7 532 853 532 800 532C746.7 532 693 532 640 532C586.7 532 533 532 480 532C426.7 532 373 532 320 532C266.7 532 213 532 160 532C106.7 532 53 532 27 532H0Z" fill="#273036"/>
<path d="M709.439 111.165C708.29 111.278 707.134 111.304 705.981 111.244C705.785 111.223 705.588 111.278 705.432 111.397C705.277 111.517 705.176 111.69 705.151 111.881L702.946 127.992C702.776 129.162 702.284 130.265 701.523 131.184C700.895 131.916 700.428 132.765 700.152 133.68C699.875 134.594 699.795 135.555 699.915 136.501V163.868C699.915 163.868 699.773 167.517 702.652 167.517C706.097 167.939 709.584 167.939 713.029 167.517C713.029 167.517 715.334 167.092 715.334 163.725V136.778C715.51 135.838 715.474 134.872 715.228 133.946C714.983 133.021 714.533 132.159 713.911 131.42C713.175 130.497 712.7 129.403 712.531 128.247L710.24 111.798C710.214 111.613 710.117 111.445 709.968 111.327C709.819 111.21 709.63 111.152 709.439 111.165V111.165Z" fill="white"/>
<path d="M707.83 168.295C706.089 168.295 704.349 168.189 702.621 167.979C702.235 167.988 701.851 167.919 701.494 167.777C701.136 167.634 700.813 167.421 700.544 167.151C699.372 165.966 699.438 163.937 699.441 163.851L699.441 136.529C699.318 135.524 699.408 134.506 699.703 133.536C699.999 132.566 700.494 131.665 701.159 130.888C701.864 130.035 702.319 129.012 702.476 127.928L704.681 111.82C704.724 111.51 704.889 111.229 705.141 111.036C705.394 110.842 705.713 110.752 706.033 110.785C707.153 110.842 708.276 110.816 709.391 110.706L709.405 110.705C709.716 110.683 710.024 110.777 710.267 110.968C710.509 111.16 710.668 111.434 710.71 111.735L713.001 128.185C713.159 129.261 713.602 130.278 714.286 131.136C714.945 131.921 715.422 132.835 715.685 133.815C715.948 134.796 715.99 135.821 715.809 136.819V163.725C715.809 167.432 713.144 167.966 713.117 167.971C711.364 168.187 709.598 168.295 707.83 168.295V168.295ZM705.917 111.703C705.846 111.7 705.777 111.722 705.722 111.766C705.668 111.81 705.632 111.872 705.622 111.94L703.416 128.054C703.234 129.307 702.708 130.489 701.892 131.474C701.306 132.158 700.869 132.952 700.61 133.807C700.351 134.662 700.275 135.559 700.386 136.444L700.389 136.501V163.868C700.388 163.902 700.338 165.614 701.23 166.513C701.414 166.696 701.636 166.838 701.881 166.932C702.126 167.026 702.389 167.068 702.652 167.056L702.711 167.059C706.117 167.476 709.564 167.476 712.97 167.059C713.015 167.048 714.86 166.639 714.86 163.725L714.868 136.695C715.032 135.821 714.999 134.922 714.77 134.062C714.542 133.201 714.123 132.4 713.545 131.712C712.754 130.724 712.243 129.552 712.062 128.311L709.77 111.86C709.76 111.793 709.725 111.731 709.671 111.688C709.617 111.645 709.548 111.622 709.478 111.626C708.308 111.74 707.13 111.766 705.956 111.705C705.943 111.704 705.93 111.703 705.917 111.703H705.917Z" fill="#3F3D56"/>
<path d="M705.957 136.99H709.453C710.843 136.99 712.176 137.528 713.159 138.485C714.142 139.442 714.694 140.741 714.694 142.094V154.903C714.694 156.257 714.142 157.555 713.159 158.512C712.176 159.469 710.843 160.007 709.453 160.007H705.957C704.567 160.007 703.234 159.469 702.252 158.512C701.269 157.555 700.716 156.257 700.716 154.903V142.094C700.716 141.424 700.852 140.76 701.115 140.141C701.379 139.522 701.765 138.959 702.252 138.485C702.738 138.011 703.316 137.635 703.952 137.379C704.588 137.122 705.269 136.99 705.957 136.99V136.99Z" fill="#0F2F0F"/>
<path d="M641.693 372.242H653.089L658.511 329.433L641.691 329.433L641.693 372.242Z" fill="#9F616A"/>
<path d="M638.786 368.618L661.23 368.617H661.231C665.024 368.617 668.662 370.085 671.344 372.697C674.026 375.309 675.533 378.852 675.533 382.546V382.999L638.787 383L638.786 368.618Z" fill="#C9C9C9"/>
<path d="M634.529 219.339C634.529 219.339 629.589 224.776 637.768 245.971L636.327 362.186L662.831 361.683L668.657 304.994L679.264 222.269L634.529 219.339Z" fill="#0D0B41"/>
<path d="M688.354 235.407L688.063 235.364C654.158 230.328 628.572 225.5 628.318 225.452L628 225.392L636.888 204.339C636.818 202.139 634.894 140.363 638.577 122.614C642.142 105.432 658.949 102.616 660.864 102.351L662.787 96.1459L687.082 108.457L691.319 122.659L692.18 161.583L688.354 235.407Z" fill="#3F3D56"/>
<path d="M702.986 155.292C701.892 155.292 700.81 155.512 699.807 155.939C698.805 156.366 697.904 156.991 697.162 157.773H656.326L641.368 160.874L643.824 179.321L697.033 168.176C697.914 169.145 699.03 169.884 700.28 170.325C701.529 170.765 702.872 170.894 704.186 170.7C705.5 170.505 706.742 169.993 707.801 169.21C708.859 168.428 709.699 167.399 710.245 166.219C710.79 165.039 711.023 163.745 710.922 162.454C710.822 161.164 710.391 159.918 709.669 158.832C708.947 157.745 707.958 156.852 706.79 156.234C705.623 155.616 704.315 155.292 702.986 155.292H702.986Z" fill="#9F616A"/>
<path d="M703.34 89.1726C708.554 79.8846 705.049 68.2391 695.511 63.1618C685.974 58.0845 674.016 61.498 668.803 70.7861C663.589 80.0741 667.094 91.7196 676.632 96.7969C686.169 101.874 698.127 98.4607 703.34 89.1726Z" fill="#9F616A"/>
<path d="M667.562 64.6569L666.607 62.7867L671.408 60.4638C671.408 60.4638 676.704 52.0717 686.288 54.4301C695.871 56.7884 700.183 58.1999 700.183 58.1999L704.972 60.5464L702.568 62.8752L706.88 64.2867L703.999 65.6804L707.351 67.5565L705.547 77.1737C705.547 77.1737 702.55 69.8794 696.789 72.6669C691.028 75.4544 680.491 71.2259 680.491 71.2259L671.336 88.4805C671.336 88.4805 669.447 82.4319 666.08 84.0447C666.08 84.0448 657.477 70.7024 667.562 64.6569Z" fill="#13121A"/>
<path d="M644.085 182.779L639.415 169.251L638.286 124.156L640.276 117.758C640.992 115.455 642.178 113.317 643.763 111.471C645.348 109.625 647.3 108.11 649.5 107.017C651.701 105.923 654.106 105.273 656.571 105.107C659.035 104.94 661.509 105.259 663.844 106.046C666.179 106.833 668.327 108.071 670.159 109.685C671.991 111.299 673.469 113.257 674.506 115.442C675.542 117.626 676.115 119.991 676.19 122.396C676.265 124.801 675.84 127.197 674.942 129.438L664.277 156.053L664.819 157.078L687.925 156.895L696.132 171.283L644.085 182.779Z" fill="#3F3D56"/>
<path d="M875.261 177.22C876.123 176.654 876.847 175.912 877.383 175.044C877.919 174.176 878.252 173.204 878.361 172.197C878.469 171.19 878.349 170.173 878.01 169.216C877.671 168.259 877.12 167.386 876.397 166.658L887.786 144.688L874.741 146.162L865.925 166.799C864.751 168.063 864.094 169.703 864.078 171.407C864.063 173.112 864.689 174.763 865.84 176.048C866.991 177.332 868.585 178.161 870.322 178.377C872.058 178.593 873.815 178.181 875.261 177.22V177.22Z" fill="#FFB7B7"/>
<path d="M966.6 332.845L956.336 332.845L951.453 294.289L966.601 294.29L966.6 332.845Z" fill="#FFB7B7"/>
<path d="M969.217 342.535L936.122 342.534V342.126C936.122 338.799 937.479 335.608 939.895 333.255C942.311 330.903 945.587 329.581 949.003 329.581H949.004L969.218 329.582L969.217 342.535Z" fill="#C9C9C9"/>
<path d="M910.506 332.845L900.242 332.845L895.359 294.289L910.508 294.29L910.506 332.845Z" fill="#FFB7B7"/>
<path d="M910.612 342.535L877.516 342.534V342.126C877.517 338.799 878.874 335.608 881.29 333.255C883.705 330.903 886.982 329.581 890.398 329.581H890.399L910.613 329.582L910.612 342.535Z" fill="#C9C9C9"/>
<path d="M909.665 170.004L899.619 192.544L891.331 322.102L912.261 321.287L917.978 259.526L935.612 204.518L945.75 265.843L949.937 319.656L967.255 320.386L974.157 170.004H909.665Z" fill="#4D4B73"/>
<path d="M959.885 58.779L930.767 59.4883L913.671 68.0351L912.733 131.091L902.071 174.627C902.071 174.627 968.689 179.092 977.898 172.569L967.015 122.833L981.612 69.0832L959.885 58.779Z" fill="#040604"/>
<path d="M918.168 69.0803L915.457 67.2975C915.457 67.2975 904.227 70.5754 900.908 85.1585C900.908 85.1585 898.368 92.475 897.253 97.5052C895.975 103.275 867.748 156.272 867.748 156.272L884.648 160.993L915.631 112.196L918.168 69.0803Z" fill="#040604"/>
<path d="M981.156 185.306C980.487 184.531 980.001 183.622 979.732 182.644C979.463 181.666 979.417 180.642 979.598 179.645C979.779 178.648 980.183 177.702 980.78 176.873C981.377 176.045 982.153 175.353 983.055 174.848L978.328 150.672L990.45 155.591L993.08 177.796C993.851 179.326 994.018 181.079 993.551 182.722C993.083 184.364 992.013 185.783 990.543 186.709C989.073 187.634 987.306 188.003 985.576 187.744C983.846 187.486 982.273 186.618 981.156 185.306V185.306Z" fill="#FFB7B7"/>
<path d="M977.231 69.8362L980.341 68.8504C980.341 68.8504 990.208 75.0171 989.269 89.9262C989.269 89.9262 989.639 97.6411 989.286 102.776C988.881 108.665 994.309 167.187 994.309 167.187H976.727L969.193 114.19L977.231 69.8362Z" fill="#040604"/>
<path d="M967.033 32.3241C967.033 36.2121 965.849 40.0127 963.631 43.2454C961.413 46.4782 958.261 48.9978 954.572 50.4856C950.884 51.9735 946.825 52.3628 942.91 51.6043C938.994 50.8458 935.398 48.9735 932.575 46.2243C929.752 43.4751 927.829 39.9725 927.05 36.1592C926.271 32.346 926.671 28.3934 928.199 24.8014C929.727 21.2094 932.314 18.1393 935.633 15.9793C938.953 13.8192 942.855 12.6663 946.848 12.6663V12.6663C952.188 12.6533 957.315 14.7068 961.1 18.375C964.886 22.0432 967.02 27.0256 967.033 32.2262C967.033 32.2588 967.033 32.2915 967.033 32.3241Z" fill="#FFB7B7"/>
<path d="M926.729 5.92013C929.094 0.968314 933.67 1.94734 937.672 3.62586C942.74 2.5311 947.56 -0.746481 953.02 1.19186C958.399 8.81047 976.458 6.56896 972.616 18.9721C972.611 21.9442 978.358 20.2142 977.355 25.0818C980.4 34.4493 966.365 52.1901 958.308 48.4542C960.301 44.8977 964.852 36.8197 957.948 36.0184C943.097 49.4761 956.416 10.392 937.756 21.7583C931.577 27.265 923.118 11.4282 926.729 5.92013Z" fill="#13121A"/>
<path d="M984.69 187.266C985.651 187.454 986.643 187.435 987.596 187.209C988.549 186.984 989.44 186.558 990.205 185.961C990.97 185.364 991.592 184.61 992.026 183.754C992.461 182.898 992.697 181.959 992.718 181.004L1043.4 134.546L1032 125.687L985.677 174.257C984.028 174.328 982.463 174.986 981.278 176.106C980.093 177.226 979.372 178.731 979.25 180.334C979.128 181.938 979.615 183.529 980.617 184.807C981.62 186.084 983.069 186.959 984.69 187.266V187.266Z" fill="#9F616A"/>
<path d="M1036.22 142.056L1026.36 130.802C1026.08 130.482 1025.87 130.107 1025.75 129.702C1025.64 129.297 1025.61 128.872 1025.67 128.456C1025.74 128.04 1025.9 127.642 1026.13 127.291C1026.37 126.939 1026.69 126.641 1027.05 126.418L1039.89 118.592C1041.58 117.203 1043.77 116.524 1045.97 116.703C1048.17 116.882 1050.21 117.905 1051.65 119.547C1053.08 121.19 1053.78 123.318 1053.6 125.465C1053.42 127.611 1052.38 129.602 1050.7 130.999L1040.77 142.08C1040.49 142.397 1040.14 142.651 1039.75 142.824C1039.35 142.998 1038.92 143.086 1038.49 143.084C1038.06 143.081 1037.63 142.988 1037.24 142.811C1036.85 142.634 1036.5 142.376 1036.22 142.056V142.056Z" fill="#CBCBCB"/>
<path d="M1009.7 371.302L997.312 371.301L991.417 324.752L1009.71 324.753L1009.7 371.302Z" fill="#9F616A"/>
<path d="M1012.86 384L972.907 383.999V383.506C972.908 379.489 974.546 375.637 977.463 372.797C980.379 369.957 984.335 368.361 988.46 368.361H988.461L1012.87 368.361L1012.86 384Z" fill="#C9C9C9"/>
<path d="M1108.76 371.302L1096.37 371.301L1090.47 324.752L1108.76 324.753L1108.76 371.302Z" fill="#9F616A"/>
<path d="M1111.92 383L1071.96 382.999V382.506C1071.96 378.489 1073.6 374.637 1076.52 371.797C1079.44 368.957 1083.39 367.361 1087.52 367.361H1087.52L1111.92 367.361L1111.92 383Z" fill="#C9C9C9"/>
<path d="M1075.43 166.731L1087.92 121.786L1071.72 112.916H1049.1L1040.3 122.082C1040.3 122.082 1025.6 132.041 1029.16 143.076L1034.9 168.209L1026.12 208.127L981.894 267.856L971.425 326.525L1012.64 337.046L1057.2 251.593L1078.8 346.212L1119 344.244L1105.15 229.517C1105.15 229.517 1101.2 194.568 1080.5 172.746L1075.43 166.731Z" fill="#070347"/>
<path d="M1101.23 206.497C1101.92 205.825 1102.46 205.012 1102.8 204.116C1103.14 203.22 1103.27 202.262 1103.19 201.311C1103.11 200.359 1102.81 199.436 1102.32 198.608C1101.84 197.779 1101.17 197.065 1100.37 196.515L1090.67 132.838L1076.76 137.116L1090.69 198.443C1089.83 199.817 1089.52 201.449 1089.81 203.031C1090.1 204.613 1090.98 206.035 1092.28 207.028C1093.58 208.021 1095.21 208.515 1096.86 208.417C1098.51 208.319 1100.06 207.636 1101.23 206.497V206.497Z" fill="#9F616A"/>
<path d="M1093.07 142.832L1077.98 144.527C1077.55 144.575 1077.11 144.532 1076.7 144.402C1076.29 144.272 1075.91 144.057 1075.6 143.772C1075.28 143.487 1075.03 143.138 1074.86 142.75C1074.69 142.362 1074.61 141.943 1074.63 141.522L1075.12 126.781C1074.88 124.64 1075.52 122.494 1076.9 120.812C1078.28 119.131 1080.29 118.052 1082.49 117.812C1084.68 117.571 1086.89 118.189 1088.62 119.53C1090.35 120.871 1091.47 122.825 1091.72 124.965L1095.63 139.164C1095.74 139.571 1095.76 139.996 1095.69 140.411C1095.62 140.826 1095.45 141.221 1095.21 141.569C1094.97 141.917 1094.65 142.21 1094.28 142.428C1093.91 142.646 1093.5 142.784 1093.07 142.832V142.832Z" fill="#CBCBCB"/>
<path d="M1035.11 100.135V81.1976C1035.11 74.4676 1037.86 68.0133 1042.74 63.2545C1047.63 58.4957 1054.26 55.8222 1061.17 55.8222C1068.08 55.8222 1074.71 58.4957 1079.59 63.2545C1084.48 68.0133 1087.22 74.4676 1087.22 81.1976V100.135C1087.22 101.038 1086.85 101.905 1086.2 102.544C1085.54 103.183 1084.65 103.542 1083.72 103.543H1038.61C1037.68 103.542 1036.79 103.183 1036.14 102.544C1035.48 101.905 1035.11 101.038 1035.11 100.135V100.135Z" fill="#13121A"/>
<path d="M1064.98 100.822C1074.23 95.894 1077.64 84.59 1072.58 75.5742C1067.51 66.5584 1055.91 63.245 1046.65 68.1735C1037.39 73.1019 1033.99 84.406 1039.05 93.4218C1044.11 102.438 1055.72 105.751 1064.98 100.822Z" fill="#9F616A"/>
<path d="M1028.95 82.7126C1028.95 77.3907 1031.13 72.2885 1034.99 68.5254C1038.85 64.7623 1044.09 62.6455 1049.56 62.6395H1053.45C1058.91 62.6455 1064.15 64.7623 1068.02 68.5254C1071.88 72.2886 1074.05 77.3907 1074.06 82.7126V83.0913H1065.84L1063.04 75.447L1062.48 83.0913H1058.23L1056.81 79.2344L1056.53 83.0913H1028.95V82.7126Z" fill="#13121A"/>
<path d="M1053.93 105.673C1053.55 105.164 1053.32 104.559 1053.27 103.928C1053.22 103.298 1053.35 102.666 1053.66 102.107C1057.78 94.4732 1063.55 80.3675 1055.89 71.6683L1055.34 71.0433H1077.58V103.554L1057.38 107.025C1057.17 107.06 1056.96 107.078 1056.76 107.078C1056.21 107.078 1055.66 106.951 1055.17 106.706C1054.68 106.462 1054.26 106.108 1053.93 105.673V105.673Z" fill="#13121A"/>
<path d="M849.56 122.984C849.278 123.267 849.019 123.57 848.787 123.892L812.557 123.029L808.331 115.507L795.841 120.236L801.995 134.259C802.492 135.392 803.353 136.337 804.449 136.953C805.544 137.569 806.816 137.822 808.072 137.674L849.004 132.858C849.97 134.049 851.284 134.925 852.774 135.37C854.263 135.815 855.856 135.808 857.341 135.349C858.826 134.891 860.132 134.003 861.086 132.804C862.041 131.605 862.597 130.152 862.683 128.637C862.768 127.122 862.378 125.618 861.564 124.325C860.75 123.031 859.551 122.01 858.126 121.396C856.702 120.783 855.119 120.606 853.589 120.89C852.059 121.173 850.653 121.904 849.56 122.984H849.56Z" fill="#FFB7B7"/>
<path d="M731.458 337.258H743.37L749.037 292.511L731.456 292.512L731.458 337.258Z" fill="#FFB7B7"/>
<path d="M728.419 333.471L751.879 333.47H751.88C755.845 333.47 759.648 335.004 762.451 337.734C765.255 340.465 766.83 344.168 766.831 348.029V348.502L728.42 348.504L728.419 333.471Z" fill="#C9C9C9"/>
<path d="M839.627 337L850.582 332.443L837.743 289.124L821.576 295.851L839.627 337Z" fill="#FFB7B7"/>
<path d="M835.305 334.679L856.878 325.704L856.879 325.703C860.525 324.187 864.641 324.143 868.321 325.581C872 327.019 874.943 329.822 876.501 333.373L876.691 333.808L841.369 348.504L835.305 334.679Z" fill="#C9C9C9"/>
<path d="M789.36 132.678L790.222 146.272L765.042 148.896L738.695 151.642L746.45 131L789.36 132.678Z" fill="#FFB7B7"/>
<path d="M790.245 137.556C789.96 137.446 761.519 126.673 744.05 135.482L743.62 135.699L740.135 118.994L738.15 83.0778L751.071 77.1316L754.629 69.3705L778.862 67.974L783.842 74.6248L800.797 80.0362L790.664 137.717L790.245 137.556Z" fill="#E4E4E4"/>
<path d="M791.136 105.137L794.133 82.2007L800.958 80.1777L801.073 80.219C801.231 80.2753 804.94 81.658 805.955 86.659C806.93 91.4591 814.27 121.33 814.344 121.632L814.417 121.931L797.172 128.65L791.136 105.137Z" fill="#E4E4E4"/>
<path d="M830.755 329.136L853.711 324.55L817.02 225.951L804.462 192.32C804.462 192.32 796.498 165.355 792.899 154.92L790.727 140.919L739.32 146.46C739.32 146.46 724.962 166.995 729.324 200.466L727.351 326.27L750.308 327.416L769.537 200.537L803.285 270.091C803.285 270.091 813.922 299.773 821.533 306.206L830.755 329.136Z" fill="#29284A"/>
<path d="M759.936 151.13C759.531 151.12 759.127 151.142 758.726 151.194L734.744 124.735L737.533 116.603L725.482 110.899L719.106 124.828C718.591 125.953 718.465 127.21 718.746 128.412C719.028 129.613 719.701 130.693 720.667 131.489L752.123 157.446C751.883 158.945 752.117 160.479 752.795 161.845C753.472 163.211 754.561 164.344 755.915 165.093C757.27 165.842 758.827 166.171 760.378 166.038C761.93 165.904 763.403 165.313 764.602 164.344C765.8 163.375 766.667 162.074 767.088 160.613C767.508 159.153 767.462 157.602 766.956 156.167C766.449 154.733 765.506 153.482 764.252 152.582C762.998 151.683 761.493 151.176 759.936 151.13V151.13Z" fill="#FFB7B7"/>
<path d="M723.31 114.819L732.686 88.8106C733.74 85.7447 735.06 83.8822 736.611 83.2744C736.916 83.1406 737.247 83.07 737.582 83.0669C737.917 83.0639 738.248 83.1285 738.556 83.2567L742.76 88.4294L746.662 104.393L736.658 127.31L723.31 114.819Z" fill="#E4E4E4"/>
<path d="M785.369 62.5919H744.209C743.363 62.591 742.551 62.2631 741.952 61.68C741.354 61.097 741.017 60.3065 741.016 59.482V42.2044C741.016 36.0642 743.521 30.1754 747.979 25.8335C752.437 21.4917 758.484 19.0525 764.789 19.0525C771.094 19.0525 777.141 21.4917 781.599 25.8335C786.058 30.1754 788.562 36.0642 788.562 42.2044V59.482C788.561 60.3065 788.225 61.097 787.626 61.68C787.027 62.2631 786.216 62.591 785.369 62.5919V62.5919Z" fill="#13121A"/>
<path d="M769.674 62.1897C779.301 62.1897 787.104 54.5901 787.104 45.2156C787.104 35.841 779.301 28.2414 769.674 28.2414C760.048 28.2414 752.245 35.841 752.245 45.2156C752.245 54.5901 760.048 62.1897 769.674 62.1897Z" fill="#FFB7B7"/>
<path d="M794.187 43.9322H769.019L768.76 40.4132L767.47 43.9322H763.595L763.083 36.9577L760.526 43.9322H753.027V43.5866C753.033 38.7311 755.016 34.076 758.541 30.6426C762.067 27.2092 766.847 25.2779 771.833 25.2724H775.381C780.367 25.2779 785.147 27.2092 788.672 30.6426C792.198 34.076 794.181 38.7311 794.187 43.5866L794.187 43.9322Z" fill="#13121A"/>
<path d="M768.813 65.8172C768.623 65.817 768.434 65.8007 768.247 65.7686L749.818 62.6019V32.9398H770.105L769.603 33.5102C762.615 41.447 767.88 54.3168 771.64 61.2818C771.917 61.7919 772.04 62.3679 771.996 62.9434C771.952 63.5189 771.742 64.0706 771.39 64.5348C771.095 64.9319 770.708 65.2551 770.26 65.478C769.812 65.7009 769.316 65.8172 768.813 65.8172V65.8172Z" fill="#13121A"/>
<path d="M989.573 137.116C988.424 137.228 987.268 137.255 986.115 137.194C985.918 137.173 985.721 137.228 985.566 137.347C985.411 137.467 985.31 137.64 985.285 137.831L983.079 153.943C982.91 155.112 982.418 156.215 981.657 157.134C981.029 157.866 980.562 158.715 980.286 159.63C980.009 160.545 979.928 161.505 980.049 162.451V189.819C980.049 189.819 979.906 193.468 982.785 193.468C986.231 193.889 989.717 193.889 993.163 193.468C993.163 193.468 995.468 193.043 995.468 189.675V162.728C995.644 161.788 995.608 160.822 995.362 159.897C995.116 158.971 994.667 158.109 994.045 157.37C993.309 156.447 992.833 155.353 992.665 154.197L990.374 137.748C990.348 137.563 990.251 137.395 990.102 137.278C989.953 137.16 989.764 137.102 989.573 137.116V137.116Z" fill="white"/>
<path d="M987.964 194.245C986.223 194.245 984.483 194.14 982.755 193.929C982.369 193.938 981.985 193.869 981.628 193.727C981.27 193.584 980.947 193.371 980.678 193.101C979.506 191.916 979.571 189.887 979.575 189.801L979.574 162.479C979.452 161.474 979.542 160.456 979.837 159.486C980.132 158.516 980.628 157.615 981.293 156.838C981.998 155.985 982.453 154.962 982.61 153.878L984.815 137.77C984.858 137.461 985.023 137.179 985.275 136.986C985.528 136.793 985.847 136.703 986.167 136.735C987.287 136.792 988.409 136.766 989.525 136.656L989.538 136.655C989.85 136.633 990.158 136.727 990.401 136.919C990.643 137.11 990.802 137.384 990.844 137.686L993.135 154.135C993.293 155.211 993.735 156.228 994.42 157.086C995.079 157.871 995.556 158.785 995.819 159.766C996.082 160.746 996.124 161.771 995.942 162.769V189.675C995.942 193.382 993.278 193.917 993.251 193.922C991.498 194.137 989.732 194.245 987.964 194.245V194.245ZM986.051 137.653C985.98 137.65 985.911 137.672 985.856 137.716C985.802 137.76 985.766 137.822 985.756 137.89L983.55 154.004C983.368 155.257 982.842 156.439 982.026 157.424C981.439 158.109 981.003 158.903 980.744 159.757C980.485 160.612 980.409 161.509 980.519 162.394L980.523 162.451V189.818C980.522 189.853 980.472 191.564 981.363 192.463C981.548 192.646 981.77 192.789 982.015 192.882C982.26 192.976 982.523 193.018 982.786 193.006L982.845 193.009C986.251 193.426 989.697 193.426 993.104 193.009C993.149 192.999 994.994 192.589 994.994 189.675L995.002 162.645C995.166 161.771 995.132 160.872 994.904 160.012C994.675 159.151 994.257 158.35 993.678 157.663C992.888 156.674 992.377 155.502 992.196 154.261L989.904 137.81C989.894 137.743 989.859 137.681 989.805 137.638C989.75 137.595 989.682 137.573 989.612 137.576C988.442 137.69 987.264 137.717 986.09 137.655C986.077 137.654 986.064 137.653 986.051 137.653V137.653Z" fill="#3F3D56"/>
<path d="M986.091 162.94H989.587C990.977 162.94 992.31 163.478 993.293 164.435C994.276 165.393 994.828 166.691 994.828 168.044V180.853C994.828 182.207 994.276 183.505 993.293 184.462C992.31 185.419 990.977 185.957 989.587 185.957H986.091C984.701 185.957 983.368 185.419 982.385 184.462C981.402 183.505 980.85 182.207 980.85 180.853V168.045C980.85 166.691 981.402 165.393 982.385 164.435C983.368 163.478 984.701 162.94 986.091 162.94V162.94Z" fill="#0F2F0F"/>
<path d="M870.951 114.925C869.803 115.038 868.647 115.064 867.494 115.004C867.297 114.983 867.1 115.038 866.945 115.157C866.79 115.276 866.689 115.45 866.664 115.641L864.458 131.752C864.289 132.922 863.797 134.025 863.035 134.944C862.408 135.675 861.941 136.525 861.664 137.439C861.388 138.354 861.307 139.314 861.427 140.26V167.628C861.427 167.628 861.285 171.277 864.164 171.277C867.61 171.699 871.096 171.699 874.542 171.277C874.542 171.277 876.847 170.852 876.847 167.485V140.537C877.023 139.597 876.987 138.631 876.741 137.706C876.495 136.781 876.046 135.919 875.424 135.179C874.688 134.257 874.212 133.163 874.044 132.006L871.753 115.558C871.727 115.373 871.63 115.205 871.481 115.087C871.332 114.969 871.143 114.912 870.951 114.925V114.925Z" fill="white"/>
<path d="M869.343 172.054C867.601 172.054 865.862 171.949 864.134 171.739C863.748 171.748 863.364 171.679 863.006 171.536C862.649 171.394 862.326 171.181 862.057 170.911C860.885 169.726 860.95 167.696 860.954 167.61L860.953 140.288C860.831 139.284 860.92 138.266 861.216 137.296C861.511 136.326 862.006 135.425 862.671 134.648C863.376 133.795 863.831 132.772 863.989 131.688L866.194 115.58C866.237 115.27 866.402 114.989 866.654 114.795C866.906 114.602 867.226 114.512 867.545 114.544C868.665 114.602 869.788 114.576 870.904 114.465L870.917 114.464C871.229 114.442 871.537 114.537 871.779 114.728C872.022 114.92 872.181 115.194 872.223 115.495L874.514 131.944C874.671 133.02 875.114 134.037 875.798 134.896C876.458 135.68 876.935 136.594 877.198 137.575C877.461 138.556 877.503 139.58 877.321 140.579V167.485C877.321 171.192 874.657 171.726 874.63 171.731C872.876 171.946 871.11 172.054 869.343 172.054V172.054ZM867.429 115.463C867.359 115.46 867.289 115.482 867.235 115.526C867.18 115.569 867.145 115.631 867.134 115.699L864.928 131.813C864.747 133.067 864.22 134.249 863.404 135.234C862.818 135.918 862.382 136.712 862.123 137.567C861.864 138.421 861.787 139.319 861.898 140.203L861.902 140.26V167.628C861.901 167.662 861.851 169.373 862.742 170.272C862.927 170.455 863.149 170.598 863.394 170.692C863.639 170.785 863.901 170.827 864.164 170.815L864.223 170.819C867.63 171.235 871.076 171.235 874.483 170.819C874.528 170.808 876.373 170.398 876.373 167.485L876.38 140.455C876.544 139.58 876.511 138.682 876.283 137.821C876.054 136.961 875.636 136.159 875.057 135.472C874.267 134.484 873.756 133.311 873.574 132.071L871.283 115.62C871.273 115.552 871.237 115.491 871.183 115.448C871.129 115.404 871.061 115.382 870.991 115.385C869.82 115.499 868.643 115.526 867.468 115.465C867.455 115.464 867.442 115.463 867.429 115.463V115.463Z" fill="#3F3D56"/>
<path d="M867.47 140.75H870.966C872.356 140.75 873.689 141.288 874.672 142.245C875.654 143.202 876.207 144.5 876.207 145.854V158.663C876.207 160.016 875.654 161.314 874.672 162.272C873.689 163.229 872.356 163.767 870.966 163.767H867.47C866.08 163.767 864.747 163.229 863.764 162.272C862.781 161.314 862.229 160.016 862.229 158.663V145.854C862.229 144.5 862.781 143.202 863.764 142.245C864.747 141.288 866.08 140.75 867.47 140.75V140.75Z" fill="#0F2F0F"/>
<path d="M850.846 91.4292C849.697 91.5419 848.541 91.5681 847.388 91.5077C847.192 91.4868 846.995 91.5418 846.84 91.6611C846.684 91.7803 846.583 91.9541 846.558 92.1451L844.353 108.256C844.183 109.426 843.692 110.529 842.93 111.448C842.302 112.18 841.836 113.029 841.559 113.944C841.282 114.858 841.202 115.818 841.322 116.764V144.132C841.322 144.132 841.18 147.781 844.059 147.781C847.505 148.203 850.991 148.203 854.437 147.781C854.437 147.781 856.742 147.356 856.742 143.989V117.042C856.917 116.101 856.881 115.135 856.636 114.21C856.39 113.285 855.941 112.423 855.319 111.684C854.583 110.761 854.107 109.667 853.939 108.51L851.648 92.062C851.622 91.8771 851.524 91.7087 851.375 91.5912C851.227 91.4736 851.037 91.4157 850.846 91.4292V91.4292Z" fill="white"/>
<path d="M849.238 148.559C847.496 148.559 845.756 148.453 844.028 148.243C843.642 148.252 843.258 148.183 842.901 148.04C842.544 147.898 842.22 147.685 841.951 147.415C840.78 146.23 840.845 144.2 840.848 144.115L840.848 116.793C840.726 115.788 840.815 114.77 841.11 113.8C841.406 112.83 841.901 111.929 842.566 111.152C843.271 110.299 843.726 109.276 843.883 108.192L846.088 92.084C846.131 91.7742 846.296 91.4928 846.549 91.2996C846.801 91.1063 847.121 91.0163 847.44 91.0486C848.56 91.1061 849.683 91.0797 850.799 90.9696L850.812 90.9685C851.123 90.9465 851.432 91.0408 851.674 91.2323C851.917 91.4237 852.075 91.698 852.118 91.9992L854.409 108.448C854.566 109.524 855.009 110.542 855.693 111.4C856.352 112.184 856.83 113.098 857.093 114.079C857.355 115.06 857.397 116.085 857.216 117.083V143.989C857.216 147.696 854.552 148.23 854.525 148.235C852.771 148.45 851.005 148.558 849.238 148.559V148.559ZM847.324 91.967C847.253 91.9637 847.184 91.986 847.13 92.0297C847.075 92.0734 847.039 92.1353 847.029 92.2033L844.823 108.317C844.642 109.571 844.115 110.753 843.299 111.738C842.713 112.422 842.277 113.216 842.017 114.071C841.758 114.926 841.682 115.823 841.793 116.708L841.797 116.764V144.132C841.796 144.166 841.745 145.878 842.637 146.777C842.821 146.959 843.043 147.102 843.288 147.196C843.533 147.289 843.796 147.331 844.059 147.319L844.118 147.323C847.524 147.739 850.971 147.739 854.377 147.323C854.422 147.312 856.267 146.902 856.267 143.989L856.275 116.959C856.439 116.085 856.406 115.186 856.177 114.325C855.949 113.465 855.531 112.663 854.952 111.976C854.162 110.988 853.65 109.815 853.469 108.575L851.178 92.1239C851.168 92.0564 851.132 91.995 851.078 91.9517C851.024 91.9084 850.955 91.8863 850.885 91.8896C849.715 92.0036 848.537 92.0302 847.363 91.969C847.35 91.9677 847.337 91.967 847.324 91.967V91.967Z" fill="#3F3D56"/>
<path d="M847.365 117.254H850.86C852.25 117.254 853.583 117.792 854.566 118.749C855.549 119.706 856.101 121.004 856.101 122.358V135.167C856.101 136.52 855.549 137.819 854.566 138.776C853.583 139.733 852.25 140.271 850.86 140.271H847.365C845.975 140.271 844.642 139.733 843.659 138.776C842.676 137.819 842.124 136.52 842.124 135.167V122.358C842.124 121.004 842.676 119.706 843.659 118.749C844.642 117.792 845.975 117.254 847.365 117.254Z" fill="#0F2F0F"/>
</svg>
