<svg width="1440" height="320" viewBox="0 0 1440 320" fill="none" xmlns="http://www.w3.org/2000/svg">
<g clip-path="url(#clip0)">
<path d="M0 96L30 85.3C60 75 120 53 180 58.7C240 64 300 96 360 133.3C420 171 480 213 540 213.3C600 213 660 171 720 176C780 181 840 235 900 245.3C960 256 1020 224 1080 197.3C1140 171 1200 149 1260 144C1320 139 1380 149 1410 154.7L1440 160V320H1410C1380 320 1320 320 1260 320C1200 320 1140 320 1080 320C1020 320 960 320 900 320C840 320 780 320 720 320C660 320 600 320 540 320C480 320 420 320 360 320C300 320 240 320 180 320C120 320 60 320 30 320H0V96Z" fill="#212123" fill-opacity="0.8"/>
<path d="M418.378 165.438L426.437 141.139L426.426 141.076L424.687 140.992L409.385 158.682L401.439 146.246L424.419 140.504L424.457 140.46L424.572 140.465L426.055 140.093L411.666 122.094L405.072 125.282L403.89 130.291L425.144 139.334L424.949 139.818L403.294 130.613L404.633 124.925L413.658 120.564L427.417 113.406L427.401 113.925L430.257 112.547L437.067 116.835L437.185 116.542L437.661 116.751L437.514 117.117L447.656 123.499L429.192 139.844L427.268 140.324L427.219 140.445L427.164 140.581L454.073 141.864L442.361 162.794L427.517 141.922L426.974 141.241L431.064 165.086L418.378 165.438ZM426.632 142.231L419.113 164.903L430.467 164.6L426.632 142.231ZM402.278 146.579L409.457 157.816L423.841 141.193L402.278 146.579ZM427.563 141.135L427.952 141.622L442.32 161.832L453.217 142.357L427.563 141.135ZM426.555 138.702L426.764 139.926L426.901 139.892L436.862 117.32L430.212 113.137L427.366 114.519L426.555 138.702ZM412.189 121.909L426.128 139.357L426.022 138.715L426.839 114.773L413.88 121.036L412.189 121.909ZM437.317 117.603L427.534 139.737L428.944 139.383L446.802 123.579L437.317 117.603Z" fill="#535461"/>
<path d="M457.236 145.396C458.011 140.695 457.679 135.881 456.268 131.336C455.744 129.648 455.077 128.008 454.274 126.435C451.183 120.394 446.176 115.557 440.038 112.684C433.901 109.811 426.981 109.064 420.365 110.561C413.749 112.057 407.81 115.712 403.482 120.952C399.153 126.191 396.68 132.719 396.449 139.511C396.219 146.303 398.245 152.975 402.209 158.478C406.173 163.982 411.851 168.006 418.352 169.919C424.853 171.833 431.808 171.527 438.127 169.05C444.446 166.574 449.77 162.066 453.264 156.235C454.084 154.861 454.797 153.426 455.396 151.942C456.25 149.834 456.867 147.639 457.236 145.396ZM418.292 161.833C413.898 160.053 410.161 156.958 407.589 152.969C405.017 148.981 403.735 144.293 403.917 139.542C404.099 134.791 405.736 130.208 408.605 126.417C411.475 122.625 415.438 119.809 419.956 118.351C424.473 116.893 429.326 116.864 433.854 118.268C438.382 119.671 442.366 122.44 445.264 126.197C448.161 129.954 449.833 134.516 450.05 139.265C450.267 144.013 449.02 148.717 446.477 152.736C443.576 157.315 439.166 160.733 434.016 162.395C428.866 164.058 423.302 163.859 418.292 161.833V161.833Z" fill="#1D1D27"/>
<path d="M425.721 143.444C427.427 144.133 429.37 143.305 430.062 141.594C430.753 139.882 429.931 137.937 428.225 137.247C426.52 136.558 424.576 137.387 423.885 139.098C423.194 140.809 424.016 142.755 425.721 143.444Z" fill="#1D1D27"/>
<path d="M521.085 207.047L529.143 182.759L529.132 182.695L527.394 182.612L512.093 200.291L504.148 187.853L527.133 182.113L527.17 182.069L527.286 182.073L528.768 181.701L514.379 163.703L507.783 166.89L506.601 171.898L527.854 180.93L527.659 181.414L506.004 172.209L507.345 166.53L516.367 162.171L530.116 155.017L530.099 155.536L532.956 154.158L539.784 158.456L539.902 158.163L540.378 158.373L540.231 158.738L550.373 165.12L531.896 181.471L529.971 181.951L529.922 182.072L529.868 182.208L556.778 183.492L545.066 204.422L530.223 183.55L529.679 182.869L533.769 206.716L521.085 207.047ZM529.34 183.84L521.821 206.512L533.174 206.209L529.34 183.84ZM504.987 188.192L512.166 199.429L526.55 182.806L504.987 188.192ZM530.272 182.748L530.661 183.234L545.029 203.444L555.926 183.969L530.272 182.748ZM529.264 180.315L529.473 181.539L529.611 181.504L539.571 158.933L532.923 154.745L530.077 156.127L529.264 180.315ZM514.905 163.527L528.843 180.975L528.738 180.333L529.555 156.391L516.592 162.655L514.905 163.527ZM540.026 159.218L530.245 181.344L531.655 180.991L549.513 165.186L540.026 159.218Z" fill="#535461"/>
<path d="M541.238 153.636C538.68 152.599 535.993 151.915 533.251 151.602C531.837 151.44 530.412 151.379 528.989 151.419C521.413 151.618 514.173 154.626 508.67 159.862C503.167 165.098 499.792 172.189 499.198 179.763C498.605 187.337 500.834 194.857 505.456 200.867C510.077 206.877 516.762 210.951 524.217 212.3C531.672 213.649 539.368 212.177 545.815 208.17C552.263 204.163 557.003 197.904 559.121 190.605C561.238 183.307 560.581 175.486 557.277 168.657C553.974 161.828 548.258 156.475 541.235 153.635L541.238 153.636ZM521.002 203.443C516.113 201.466 512.05 197.87 509.488 193.254C506.926 188.637 506.018 183.277 506.915 178.064C507.813 172.851 510.462 168.099 514.422 164.596C518.383 161.093 523.416 159.051 528.687 158.809C530.028 158.747 531.372 158.803 532.703 158.977C535.956 159.4 539.082 160.512 541.87 162.241C544.659 163.97 547.047 166.275 548.875 169.003C550.703 171.731 551.93 174.819 552.474 178.062C553.018 181.305 552.866 184.629 552.028 187.812C551.191 190.994 549.687 193.963 547.618 196.521C545.548 199.079 542.959 201.167 540.024 202.646C537.089 204.125 533.875 204.961 530.595 205.099C527.316 205.236 524.046 204.672 521.004 203.444L521.002 203.443Z" fill="#1D1D27"/>
<path d="M528.432 185.054C530.137 185.743 532.08 184.915 532.772 183.204C533.463 181.492 532.641 179.547 530.935 178.858C529.23 178.168 527.286 178.997 526.595 180.708C525.904 182.419 526.726 184.365 528.432 185.054Z" fill="#1D1D27"/>
<path d="M466.043 138.924L459.865 124.571L455.326 126.542L461.504 140.896L466.043 138.924Z" fill="#6C63FF"/>
<path opacity="0.1" d="M466.043 138.924L459.865 124.571L455.326 126.542L461.504 140.896L466.043 138.924Z" fill="black"/>
<path d="M464.292 120.685C464.292 120.685 471.547 119.936 474.679 118.833C476.563 118.174 478.5 117.683 480.469 117.365L489.816 115.816L505.975 120.938L505.623 123.891C505.623 123.891 505.265 128.248 491.843 126.764C478.421 125.28 470.244 128.166 470.244 128.166C470.244 128.166 461.458 127.7 464.292 120.685Z" fill="#DB8B8B"/>
<path opacity="0.1" d="M471.095 127.899C470.536 128.053 470.248 128.156 470.248 128.156C470.248 128.156 461.458 127.7 464.292 120.685C464.292 120.685 464.746 120.638 465.471 120.545C465.673 121.761 466.184 122.904 466.954 123.865C467.723 124.825 468.726 125.572 469.866 126.032L470.684 126.363L471.095 127.899Z" fill="black"/>
<path opacity="0.05" d="M504.857 125.134C503.612 126.288 500.354 127.695 491.847 126.754C480.946 125.548 473.506 127.221 471.095 127.899C470.536 128.053 470.248 128.156 470.248 128.156C470.248 128.156 461.458 127.7 464.292 120.685C464.292 120.685 464.746 120.638 465.471 120.545C467.66 120.285 472.324 119.657 474.676 118.82C476.559 118.161 478.496 117.67 480.465 117.353L489.813 115.804L492.691 116.716L505.972 120.925L505.62 123.878C505.62 123.878 505.579 124.466 504.857 125.134Z" fill="black"/>
<path d="M465.048 119.162L456.949 120.813L469.305 144.093C469.305 144.093 472.738 143.511 472.073 140.991C472.073 140.991 468.913 134.932 471.017 129.029L470.352 126.51L469.535 126.18C468.153 125.622 466.979 124.647 466.175 123.389C465.371 122.132 464.977 120.655 465.048 119.162Z" fill="#DCDFF1"/>
<path opacity="0.1" d="M504.857 125.134C501.755 121.706 492.42 117.701 492.42 117.701L492.699 116.719L505.979 120.928L505.627 123.881C505.627 123.881 505.579 124.466 504.857 125.134Z" fill="black"/>
<path d="M492.615 117.217C492.615 117.217 503.848 122.037 505.764 125.625L516.142 95.7742L500.472 89.443L492.615 117.217Z" fill="#ABB1D1"/>
<path opacity="0.05" d="M492.664 117.096C492.664 117.096 503.897 121.916 505.813 125.504L516.191 95.6533L500.52 89.3221L492.664 117.096Z" fill="black"/>
<path d="M508.954 102.987C508.954 102.987 537.708 113.479 536.8 117.392C535.892 121.305 507.577 108.061 507.577 108.061C507.577 108.061 506.202 104.801 508.954 102.987Z" fill="#535461"/>
<path opacity="0.05" d="M508.954 102.987C508.954 102.987 537.708 113.479 536.8 117.392C535.892 121.305 507.577 108.061 507.577 108.061C507.577 108.061 506.202 104.801 508.954 102.987Z" fill="#303137"/>
<path d="M480.049 108.423L475.032 106.396L457.356 150.145L462.373 152.172L480.049 108.423Z" fill="#57555F"/>
<path opacity="0.1" d="M480.05 108.421L478.689 111.79C476.932 111.334 475.17 110.782 473.506 110.172L475.033 106.394L480.05 108.421Z" fill="black"/>
<path d="M481.138 104.643C480.457 104.304 479.795 103.927 479.155 103.513C476.647 101.892 470.233 98.0261 467.638 99.1409C464.385 100.528 463.514 104.905 469.453 107.98C475.393 111.055 486.631 113.795 489.694 112.329C489.698 112.319 487.13 107.618 481.138 104.643Z" fill="#1D1E23"/>
<path d="M473.85 119.879L533.174 124.708L533.267 129.475L471.733 126.229L473.85 119.879Z" fill="#57555F"/>
<path d="M478.999 152.134L532.183 129.937L533.054 133.89L481.449 157.176L478.999 152.134Z" fill="#57555F"/>
<path opacity="0.1" d="M532.7 158.976C531.369 158.802 530.026 158.746 528.685 158.808L528.99 151.417C530.413 151.376 531.838 151.438 533.252 151.6L532.7 158.976Z" fill="black"/>
<path d="M531.487 180.546L528.161 181.003L530.658 120.585L530.769 117.881L536.225 117.157L535.931 121.084L531.487 180.546Z" fill="#57555F"/>
<path opacity="0.1" d="M535.931 121.084L530.658 120.585L530.769 117.881L536.225 117.157L535.931 121.084Z" fill="black"/>
<path d="M505.58 113.559L535.691 115.14C535.691 115.14 540.087 117.592 536.785 120.762L506.953 117.94C506.953 117.94 502.747 116.691 505.58 113.559Z" fill="#303137"/>
<path opacity="0.1" d="M455.396 151.942C454.797 153.425 454.084 154.861 453.264 156.235C451.017 155.133 448.723 153.925 446.477 152.736C448.16 150.07 449.288 147.092 449.793 143.981C452.272 144.419 454.79 144.899 457.234 145.4C456.865 147.642 456.249 149.836 455.396 151.942V151.942Z" fill="black"/>
<path opacity="0.1" d="M464.453 147.025L462.374 152.17L457.357 150.143L459.116 145.789C460.974 146.188 462.77 146.602 464.453 147.025Z" fill="black"/>
<path d="M429.094 141.211C429.094 141.211 473.915 146.941 475.553 152.326C477.191 157.712 478.474 164.538 467.475 162.345C456.477 160.152 427.706 142.448 427.706 142.448L429.094 141.211Z" fill="#57555F"/>
<path opacity="0.1" d="M456.268 131.336L449.208 133.984C448.77 132.441 448.174 130.948 447.429 129.529L454.272 126.434C455.076 128.007 455.743 129.648 456.268 131.336V131.336Z" fill="black"/>
<path d="M428.607 138.53L471.726 119.021L469.721 126.767L428.977 142.056L428.607 138.53Z" fill="#57555F"/>
<path opacity="0.1" d="M426.11 143.601C427.815 144.29 429.758 143.461 430.45 141.75C431.141 140.039 430.319 138.093 428.613 137.404C426.908 136.715 424.965 137.544 424.273 139.255C423.582 140.966 424.404 142.912 426.11 143.601Z" fill="black"/>
<path opacity="0.1" d="M528.395 184.589C530.101 185.278 532.044 184.45 532.735 182.739C533.426 181.028 532.604 179.082 530.899 178.393C529.193 177.704 527.25 178.532 526.559 180.243C525.867 181.954 526.689 183.9 528.395 184.589Z" fill="black"/>
<path opacity="0.1" d="M473.574 162.778C476.984 164.155 480.868 162.499 482.251 159.078C483.633 155.657 481.989 151.767 478.579 150.389C475.169 149.012 471.285 150.668 469.902 154.089C468.52 157.51 470.164 161.4 473.574 162.778Z" fill="black"/>
<path d="M473.962 162.935C477.372 164.312 481.257 162.656 482.639 159.235C484.021 155.814 482.377 151.924 478.967 150.546C475.557 149.168 471.673 150.825 470.291 154.246C468.908 157.667 470.552 161.557 473.962 162.935Z" fill="#535461"/>
<path d="M475.004 155.609L475.002 155.61C474.057 155.861 473.492 156.831 473.74 157.778L475.985 166.332C476.233 167.278 477.2 167.842 478.145 167.591L478.148 167.59C479.092 167.339 479.657 166.369 479.409 165.422L477.165 156.868C476.916 155.922 475.949 155.358 475.004 155.609Z" fill="#6C63FF"/>
<path d="M539.102 81.9802L535.586 89.0309C535.147 89.9268 534.785 90.8581 534.503 91.8149C534.249 92.6602 533.597 94.057 531.922 95.9124C529.777 98.2804 528.062 101.006 526.854 103.965L523.505 112.254L518.351 109.046C518.351 109.046 523.283 97.5341 523.1 95.2095C522.918 92.885 531.544 76.3942 531.544 76.3942L539.102 81.9802Z" fill="#DB8B8B"/>
<path opacity="0.05" d="M537.36 85.4739L535.586 89.0309C535.148 89.9264 534.787 90.8572 534.507 91.8135C534.252 92.6588 533.601 94.0556 531.925 95.9134C529.78 98.2814 528.064 101.007 526.857 103.966L523.508 112.255L518.354 109.047C518.354 109.047 523.285 97.535 523.103 95.2105C522.975 93.5634 527.263 84.8101 529.778 79.8419C530.814 77.7986 531.546 76.3952 531.546 76.3952L539.104 81.9811L537.36 85.4739Z" fill="black"/>
<path d="M489.148 126.508L482.255 137.565C481.35 139.047 480.315 140.447 479.163 141.746C476.586 144.604 475.469 149.619 475.026 152.423C474.832 153.661 474.762 154.465 474.762 154.465L467.125 155.319L465.783 153.089L466.174 152.121L474.63 130.498C474.552 126.527 477.086 121.643 478.832 120.097C479.363 119.572 479.826 118.982 480.209 118.341C481.739 115.943 483.36 112.361 483.36 112.361C483.36 112.361 489.856 107.389 492.677 113.593C493.717 115.879 493.511 118.235 492.835 120.297C491.683 123.829 489.148 126.508 489.148 126.508Z" fill="#DB8B8B"/>
<path opacity="0.1" d="M492.838 120.289C488.689 120.931 482.644 119.145 480.212 118.334C481.742 115.936 483.363 112.354 483.363 112.354C483.363 112.354 489.859 107.382 492.68 113.586C493.72 115.871 493.514 118.227 492.838 120.289Z" fill="black"/>
<path d="M503.386 117.63C500.269 117.964 497.191 118.605 494.199 119.545C489.071 121.131 479.33 117.477 479.33 117.477L480.796 113.849C482.796 109.592 480.652 103.099 480.579 87.3144C480.532 77.2343 483.491 72.7354 485.64 70.7901C486.858 69.6924 487.811 69.4162 487.811 69.4162L515.601 87.3964L515.369 91.0728L514.872 98.9185C514.872 98.9185 506.238 95.9931 504.499 96.1343C502.759 96.2755 501.085 103.195 501.085 103.195C496.902 109.383 503.386 117.63 503.386 117.63Z" fill="#ABB1D1"/>
<path opacity="0.1" d="M539.102 81.9801L537.36 85.4739C532.676 84.9884 531.238 79.9281 531.238 79.9281C530.753 79.869 530.264 79.8399 529.775 79.8409C530.811 77.7976 531.544 76.3942 531.544 76.3942L539.102 81.9801Z" fill="black"/>
<path opacity="0.1" d="M515.369 91.0728C514.799 92.1566 514.513 92.8653 514.513 92.8653C514.513 92.8653 507.111 95.2205 500.543 84.4076C493.975 73.5947 484.755 72.1205 484.755 72.1205C484.755 72.1205 485.081 71.5993 485.64 70.7901C486.858 69.6924 487.811 69.4162 487.811 69.4162L515.601 87.3964L515.369 91.0728Z" fill="black"/>
<path d="M546.168 73.8482C543.55 78.516 540.834 84.6352 540.834 84.6352C533.53 86.7485 531.438 79.4323 531.438 79.4323C525.632 78.7268 521.313 82.3302 518.532 85.8742C517.034 87.7937 515.784 89.8949 514.811 92.1276C514.811 92.1276 512.856 92.7447 510.059 91.8956C507.419 91.0794 504.029 88.9333 500.841 83.6699C494.273 72.857 485.053 71.3828 485.053 71.3828C485.053 71.3828 490.649 62.39 495.679 61.046C500.709 59.7021 505.068 57.2429 514.385 48.0651C523.702 38.8873 532.511 45.5414 532.511 45.5414C532.511 45.5414 533.873 43.5594 541.913 49.3401C543.855 50.7892 545.434 52.6705 546.527 54.8363C549.672 60.7886 549.464 67.9663 546.168 73.8482Z" fill="#6B3333"/>
<path d="M542.933 56.0965C542.791 56.4133 542.62 56.7605 542.415 57.1421C540.174 61.3009 539.887 60.6223 534.193 59.4469C530.651 58.7167 530.054 55.2596 530.109 52.7497C530.129 51.8406 530.233 50.9351 530.42 50.0448L542.773 52.7852C542.773 52.7852 544.317 52.9559 542.933 56.0965Z" fill="#DB8B8B"/>
<path opacity="0.05" d="M518.527 85.8863C517.029 87.8058 515.779 89.9069 514.806 92.1397C514.806 92.1397 512.852 92.7568 510.054 91.9077C510.04 91.7229 510.047 91.5371 510.076 91.3539C510.473 88.9822 508.42 83.6513 508.42 83.6513C506.889 80.5005 507.97 76.4358 507.97 76.4358L508.732 63.0981L507.846 61.474C507.846 61.474 515.15 59.3607 518.505 64.9367C521.861 70.5128 517.288 77.6681 517.288 77.6681L517.177 80.7183C517.836 81.969 518.25 83.8724 518.527 85.8863Z" fill="black"/>
<path d="M508.667 61.5243L508.791 76.4862C508.791 76.4862 507.71 80.5508 509.241 83.7017C509.241 83.7017 511.294 89.0326 510.897 91.4042C510.499 93.7758 514.904 102.308 514.904 102.308C514.904 102.308 518.827 110.645 518.43 113.017C518.43 113.017 523.532 117.048 521.44 120.142C521.44 120.142 527.539 117.541 524.861 111.676C522.182 105.811 519.817 95.0081 519.817 95.0081C519.817 95.0081 520.057 84.6954 517.998 80.7686L518.109 77.7185C518.109 77.7185 522.682 70.5632 519.326 64.9871C515.971 59.411 508.667 61.5243 508.667 61.5243Z" fill="#DB8B8B"/>
<path opacity="0.1" d="M474.765 154.458L467.128 155.312L465.786 153.081L466.177 152.114C468.405 152.835 470.767 153.048 473.09 152.738C473.801 152.643 474.477 152.539 475.029 152.43C474.83 153.652 474.765 154.458 474.765 154.458Z" fill="black"/>
<path opacity="0.1" d="M523.137 55.5543L521.138 70.2206C521.138 70.2206 510.087 67.7253 508.602 65.1556C507.116 62.5859 503.213 60.4463 503.213 60.4463C503.213 60.4463 512.634 49.6225 515.631 49.1453C518.628 48.6682 523.137 55.5543 523.137 55.5543Z" fill="black"/>
<path d="M523.333 55.0705L521.333 69.7369C521.333 69.7369 510.283 67.2416 508.797 64.6719C507.311 62.1022 503.408 59.9626 503.408 59.9626C503.408 59.9626 512.829 49.1388 515.827 48.6616C518.824 48.1844 523.333 55.0705 523.333 55.0705Z" fill="#6B3333"/>
<path opacity="0.1" d="M543.031 55.8546C541.978 56.5169 540.801 56.9566 539.573 57.1466C538.346 57.3365 537.093 57.2728 535.891 56.9594C534.69 56.6459 533.566 56.0892 532.589 55.3237C531.611 54.5582 530.801 53.5999 530.207 52.5078C530.227 51.5987 530.331 50.6932 530.517 49.8029L542.871 52.5433C542.871 52.5433 544.415 52.714 543.031 55.8546Z" fill="black"/>
<path d="M546.73 51.3002C545.823 53.5454 544.064 55.3394 541.84 56.2876C539.616 57.2359 537.11 57.2606 534.872 56.3565C532.634 55.4523 530.848 53.6933 529.907 51.4664C528.966 49.2395 528.947 46.7272 529.854 44.482C529.911 44.3417 529.968 44.2014 530.024 44.0612C530.987 41.8385 532.79 40.0882 535.038 39.1953C537.285 38.3024 539.792 38.3401 542.007 39.3001C544.223 40.2601 545.965 42.0637 546.85 44.3141C547.736 46.5646 547.693 49.0776 546.73 51.3002V51.3002Z" fill="#DB8B8B"/>
<path opacity="0.1" d="M546.73 51.3002C546.416 52.0807 545.995 52.814 545.48 53.4791C544.77 53.3582 544.115 53.0209 543.604 52.5131C542.846 51.7932 542.319 50.8687 541.632 50.0788C539.695 47.8557 536.696 46.9282 533.831 46.246C532.408 45.9076 530.811 45.4817 530.103 44.1998C530.078 44.1565 530.056 44.1118 530.036 44.066C530.999 41.8433 532.803 40.0931 535.05 39.2002C537.297 38.3073 539.804 38.345 542.019 39.305C544.235 40.2649 545.977 42.0685 546.862 44.319C547.748 46.5695 547.705 49.0824 546.742 51.3051L546.73 51.3002Z" fill="black"/>
<path opacity="0.05" d="M496.808 61.3755C496.808 61.3755 502.392 65.601 502.562 70.7339C502.732 75.8667 507.627 78.7703 507.627 78.7703" fill="black"/>
<path d="M481.737 166.7L467.272 160.856L465.415 165.452L479.88 171.296L481.737 166.7Z" fill="#6C63FF"/>
<path opacity="0.1" d="M481.737 166.7L467.272 160.856L465.415 165.452L479.88 171.296L481.737 166.7Z" fill="black"/>
<path d="M472.89 153.206C474.478 153.003 475.906 152.736 476.126 152.476C476.126 152.476 477.996 157.255 480.471 159.504C481.303 160.262 482.051 161.108 482.703 162.026C483.562 163.217 484.861 164.736 486.353 165.339C486.353 165.339 488.556 169.605 481.851 167.458C475.147 165.312 460.643 157.483 460.643 157.483L464.05 151.826C466.8 153.13 469.87 153.609 472.89 153.206Z" fill="#DCDFF1"/>
<path d="M525.866 36.7793C525.727 38.6025 528.172 39.6497 528.957 41.3511C529.365 42.2362 529.302 43.2741 529.802 44.1178C530.497 45.2931 532.017 45.7102 533.371 46.0435C536.097 46.7172 538.953 47.6152 540.827 49.6692C541.492 50.3966 542.009 51.2471 542.74 51.9165C543.471 52.5859 544.523 53.0561 545.453 52.7678C546.197 52.5366 546.706 51.8672 547.415 51.5687C547.969 51.3308 548.606 51.3293 549.195 51.1622C550.479 50.8147 551.394 49.7719 552.143 48.724C553.687 46.5681 554.894 44.0594 554.824 41.3947C554.753 38.7301 553.127 35.9262 550.49 34.9986C549.682 34.7144 548.825 34.6073 547.999 34.3749C545.853 33.7525 544.096 32.2353 542.075 31.2811C541.505 30.9654 540.863 30.8028 540.211 30.809C539.695 30.8737 539.199 31.0534 538.761 31.3348C537.312 32.1967 536.079 33.3814 535.158 34.7971C534.449 35.8582 534.013 36.903 532.526 36.5102C530.832 36.0734 526.159 32.9225 525.866 36.7793Z" fill="#3F1D1D"/>
</g>
<defs>
<clipPath id="clip0">
<rect width="1440" height="320" fill="white"/>
</clipPath>
</defs>
</svg>
